<?xml version="1.0" encoding="UTF-8" standalone="no" ?>
<!DOCTYPE svg PUBLIC "-//W3C//DTD SVG 1.1//EN" "http://www.w3.org/Graphics/SVG/1.1/DTD/svg11.dtd">
<svg xmlns="http://www.w3.org/2000/svg" xmlns:xlink="http://www.w3.org/1999/xlink" version="1.1" width="1640" height="624" viewBox="0 0 1640 624" xml:space="preserve">
<desc>Created with Fabric.js 5.3.0</desc>
<defs>
</defs>
<g transform="matrix(2.411764705882353 0 0 2.411764705882353 820 312)" id="background-b5bd1877-88a2-4fd0-aa28-dbb210ace36a"  >
<rect style="stroke: none; stroke-width: 0; stroke-dasharray: none; stroke-linecap: butt; stroke-dashoffset: 0; stroke-linejoin: miter; stroke-miterlimit: 4; fill: rgb(255,255,255); fill-rule: nonzero; opacity: 1;"  paint-order="stroke"  x="-340" y="-129.3658536585366" rx="0" ry="0" width="680" height="258.7317073170732" />
</g>
<g transform="matrix(2.4117647058823533 0 0 2.4117647058823533 1198.2049228194758 464.37168856059725)" id="tagline-1c550f23-544d-4bfd-a1f8-c3ceefc18dcb-logo"  >
<g style=""  paint-order="stroke"   >
		<g transform="matrix(1 0 0 1 0 0)" id="tagline-1c550f23-544d-4bfd-a1f8-c3ceefc18dcb-logo-path-0"  >
<path style="stroke: none; stroke-width: 0; stroke-dasharray: none; stroke-linecap: butt; stroke-dashoffset: 0; stroke-linejoin: miter; stroke-miterlimit: 4; fill: rgb(49,90,117); fill-rule: nonzero; opacity: 0.6;"  paint-order="stroke"  transform=" translate(-171.075, 19.160000000000004)" d="M 4.82 -54.38 L 4.82 0 L 16.13 0 L 16.13 -35.84 L 32.56 -13.87 L 34.02 -13.87 L 50.44 -35.04 L 50.44 0 L 61.76 0 L 61.76 -54.38 L 50.81 -54.38 L 33.51 -30.81 L 15.77 -54.38 L 4.82 -54.38 Z M 80.01 0.88 L 80.01 0.88 Q 87.45 0.88 91.98 -3.72 L 91.98 -3.72 L 91.98 0 L 102.2 0 L 102.2 -26.28 Q 102.2 -30.59 100.05 -33.84 Q 97.89 -37.08 94.02 -38.91 Q 90.15 -40.73 85.12 -40.73 L 85.12 -40.73 Q 78.77 -40.73 73.99 -37.81 Q 69.2 -34.89 67.45 -29.93 L 67.45 -29.93 L 76.21 -25.77 Q 77.23 -28.4 79.46 -30 Q 81.69 -31.61 84.61 -31.61 L 84.61 -31.61 Q 87.67 -31.61 89.46 -30.08 Q 91.25 -28.54 91.25 -26.28 L 91.25 -26.28 L 91.25 -25.18 L 80.23 -23.43 Q 73.07 -22.26 69.57 -18.98 Q 66.06 -15.69 66.06 -10.66 L 66.06 -10.66 Q 66.06 -5.26 69.82 -2.19 Q 73.58 0.88 80.01 0.88 Z M 77.38 -11.02 L 77.38 -11.02 Q 77.38 -12.99 78.62 -14.05 Q 79.86 -15.11 82.2 -15.55 L 82.2 -15.55 L 91.25 -17.15 L 91.25 -15.91 Q 91.25 -12.26 88.77 -9.71 Q 86.29 -7.15 82.2 -7.15 L 82.2 -7.15 Q 80.15 -7.15 78.77 -8.18 Q 77.38 -9.2 77.38 -11.02 Z M 107.31 -39.86 L 107.31 0 L 118.26 0 L 118.26 -21.46 Q 118.26 -25.91 120.74 -28.36 Q 123.22 -30.81 127.24 -30.81 L 127.24 -30.81 L 130.67 -30.81 L 130.67 -40.3 L 128.33 -40.3 Q 124.68 -40.3 121.87 -38.95 Q 119.06 -37.59 117.53 -33.87 L 117.53 -33.87 L 117.53 -39.86 L 107.31 -39.86 Z M 132.57 -54.38 L 132.57 0 L 143.52 0 L 143.52 -12.19 L 147.9 -17.01 L 158.04 0 L 170.45 0 L 156.07 -23.8 L 170.53 -39.86 L 157.02 -39.86 L 143.52 -25.48 L 143.52 -54.38 L 132.57 -54.38 Z M 190.9 0.88 L 190.9 0.88 Q 197.03 0.88 201.63 -1.79 Q 206.23 -4.45 208.05 -8.83 L 208.05 -8.83 L 199.29 -12.99 Q 198.12 -10.95 196.04 -9.78 Q 193.96 -8.61 191.04 -8.61 L 191.04 -8.61 Q 187.03 -8.61 184.47 -10.88 Q 181.92 -13.14 181.48 -16.86 L 181.48 -16.86 L 209.36 -16.86 Q 209.66 -17.67 209.77 -18.8 Q 209.88 -19.93 209.88 -21.1 L 209.88 -21.1 Q 209.88 -26.64 207.58 -31.06 Q 205.28 -35.48 200.9 -38.11 Q 196.52 -40.73 190.17 -40.73 L 190.17 -40.73 Q 184.47 -40.73 179.95 -38.03 Q 175.42 -35.33 172.75 -30.66 Q 170.09 -25.99 170.09 -20 L 170.09 -20 Q 170.09 -14.23 172.65 -9.49 Q 175.2 -4.75 179.87 -1.93 Q 184.54 0.88 190.9 0.88 Z M 190.17 -31.97 L 190.17 -31.97 Q 193.52 -31.97 195.71 -30 Q 197.9 -28.03 198.27 -24.89 L 198.27 -24.89 L 181.7 -24.89 Q 182.5 -28.32 184.73 -30.15 Q 186.95 -31.97 190.17 -31.97 Z M 232.58 0.44 L 232.58 0.44 Q 235.28 0.44 237.69 0.07 L 237.69 0.07 L 237.69 -9.27 Q 236.16 -9.05 235.13 -9.05 L 235.13 -9.05 Q 228.34 -9.05 228.34 -15.11 L 228.34 -15.11 L 228.34 -30.37 L 237.69 -30.37 L 237.69 -39.86 L 228.34 -39.86 L 228.34 -48.91 L 217.39 -48.91 L 217.39 -45.99 Q 217.39 -39.86 211.04 -39.86 L 211.04 -39.86 L 210.68 -39.86 L 210.68 -30.37 L 217.39 -30.37 L 217.39 -14.38 Q 217.39 -7.37 221.37 -3.47 Q 225.35 0.44 232.58 0.44 Z M 241.19 -54.38 L 241.19 -43.43 L 252.14 -43.43 L 252.14 -54.38 L 241.19 -54.38 Z M 241.19 -39.86 L 241.19 0 L 252.14 0 L 252.14 -39.86 L 241.19 -39.86 Z M 257.25 -39.86 L 257.25 0 L 268.2 0 L 268.2 -23.29 Q 268.2 -26.72 270.25 -28.8 Q 272.29 -30.88 275.5 -30.88 L 275.5 -30.88 Q 278.71 -30.88 280.76 -28.8 Q 282.8 -26.72 282.8 -23.29 L 282.8 -23.29 L 282.8 0 L 293.75 0 L 293.75 -25.62 Q 293.75 -30.15 291.85 -33.54 Q 289.96 -36.94 286.56 -38.84 Q 283.17 -40.73 278.64 -40.73 L 278.64 -40.73 Q 274.85 -40.73 271.93 -39.31 Q 269.01 -37.89 267.47 -34.97 L 267.47 -34.97 L 267.47 -39.86 L 257.25 -39.86 Z M 317.62 16.06 L 317.62 16.06 Q 323.39 16.06 327.81 13.72 Q 332.22 11.39 334.78 7.26 Q 337.33 3.14 337.33 -2.12 L 337.33 -2.12 L 337.33 -39.86 L 327.11 -39.86 L 327.11 -35.7 Q 322.88 -40.73 315.51 -40.73 L 315.51 -40.73 Q 310.03 -40.73 305.72 -38.25 Q 301.42 -35.77 298.94 -31.43 Q 296.45 -27.08 296.45 -21.46 L 296.45 -21.46 Q 296.45 -15.84 298.94 -11.42 Q 301.42 -7.01 305.8 -4.49 Q 310.18 -1.97 315.73 -1.97 L 315.73 -1.97 Q 322.44 -1.97 326.38 -5.91 L 326.38 -5.91 L 326.38 -2.12 Q 326.38 1.75 324.05 3.98 Q 321.71 6.2 317.62 6.2 L 317.62 6.2 Q 314.19 6.2 311.71 4.6 Q 309.23 2.99 308.43 0.22 L 308.43 0.22 L 298.28 3.8 Q 299.52 7.52 302.33 10.26 Q 305.14 12.99 309.08 14.53 Q 313.02 16.06 317.62 16.06 Z M 317.26 -11.9 L 317.26 -11.9 Q 313.1 -11.9 310.43 -14.53 Q 307.77 -17.15 307.77 -21.32 L 307.77 -21.32 Q 307.77 -25.55 310.43 -28.21 Q 313.1 -30.88 317.26 -30.88 L 317.26 -30.88 Q 321.35 -30.88 323.86 -28.25 Q 326.38 -25.62 326.38 -21.32 L 326.38 -21.32 Q 326.38 -17.08 323.86 -14.49 Q 321.35 -11.9 317.26 -11.9 Z" stroke-linecap="round" />
</g>
</g>
</g>
<g transform="matrix(1 0 0 1 186.87329318796935 218.19361663339316)" id="tagline-40cd9be7-2ccc-41a4-8e78-074496c6c3ab-logo"  >
<g style=""  paint-order="stroke"   >
		<g transform="matrix(1 0 0 1 0 0)" id="tagline-40cd9be7-2ccc-41a4-8e78-074496c6c3ab-logo-path-0"  >
<path style="stroke: none; stroke-width: 0; stroke-dasharray: none; stroke-linecap: butt; stroke-dashoffset: 0; stroke-linejoin: miter; stroke-miterlimit: 4; fill: rgb(49,90,117); fill-rule: nonzero; opacity: 1;"  paint-order="stroke"  transform=" translate(0, 0)" d="" stroke-linecap="round" />
</g>
</g>
</g>
<g transform="matrix(2.4117647058823533 0 0 2.4117647058823533 926.0399310170615 259.9438169995393)" id="text-logo"  >
<g style=""  paint-order="stroke"   >
		<g transform="matrix(1 0 0 1 0 0)" id="text-logo-path-0"  >
<path style="stroke: none; stroke-width: 0; stroke-dasharray: none; stroke-linecap: butt; stroke-dashoffset: 0; stroke-linejoin: miter; stroke-miterlimit: 4; fill: rgb(49,90,117); fill-rule: nonzero; opacity: 1;"  paint-order="stroke"  transform=" translate(-201.72, 29.32)" d="M 16 -48.8 L 16 0 L 28.4 0 L 28.4 -48.8 L 43.28 -48.8 L 43.28 -59.6 L 0.88 -59.6 L 0.88 -48.8 L 16 -48.8 Z M 40.56 -43.68 L 40.56 0 L 52.56 0 L 52.56 -23.52 Q 52.56 -28.4 55.28 -31.08 Q 58 -33.76 62.4 -33.76 L 62.4 -33.76 L 66.16 -33.76 L 66.16 -44.16 L 63.6 -44.16 Q 59.6 -44.16 56.52 -42.68 Q 53.44 -41.2 51.76 -37.12 L 51.76 -37.12 L 51.76 -43.68 L 40.56 -43.68 Z M 81.76 0.96 L 81.76 0.96 Q 89.92 0.96 94.88 -4.08 L 94.88 -4.08 L 94.88 0 L 106.08 0 L 106.08 -28.8 Q 106.08 -33.52 103.72 -37.08 Q 101.36 -40.64 97.12 -42.64 Q 92.88 -44.64 87.36 -44.64 L 87.36 -44.64 Q 80.4 -44.64 75.16 -41.44 Q 69.92 -38.24 68 -32.8 L 68 -32.8 L 77.6 -28.24 Q 78.72 -31.12 81.16 -32.88 Q 83.6 -34.64 86.8 -34.64 L 86.8 -34.64 Q 90.16 -34.64 92.12 -32.96 Q 94.08 -31.28 94.08 -28.8 L 94.08 -28.8 L 94.08 -27.6 L 82 -25.68 Q 74.16 -24.4 70.32 -20.8 Q 66.48 -17.2 66.48 -11.68 L 66.48 -11.68 Q 66.48 -5.76 70.6 -2.4 Q 74.72 0.96 81.76 0.96 Z M 78.88 -12.08 L 78.88 -12.08 Q 78.88 -14.24 80.24 -15.4 Q 81.6 -16.56 84.16 -17.04 L 84.16 -17.04 L 94.08 -18.8 L 94.08 -17.44 Q 94.08 -13.44 91.36 -10.64 Q 88.64 -7.84 84.16 -7.84 L 84.16 -7.84 Q 81.92 -7.84 80.4 -8.96 Q 78.88 -10.08 78.88 -12.08 Z M 132.24 0.96 L 132.24 0.96 Q 136.24 0.96 139.72 -0.36 Q 143.2 -1.68 145.52 -4.16 L 145.52 -4.16 L 145.52 0 L 156.72 0 L 156.72 -59.6 L 144.72 -59.6 L 144.72 -40 Q 140.08 -44.64 132.16 -44.64 L 132.16 -44.64 Q 125.92 -44.64 120.88 -41.6 Q 115.84 -38.56 112.88 -33.4 Q 109.92 -28.24 109.92 -21.84 L 109.92 -21.84 Q 109.92 -15.52 112.84 -10.32 Q 115.76 -5.12 120.8 -2.08 Q 125.84 0.96 132.24 0.96 Z M 133.68 -9.84 L 133.68 -9.84 Q 128.72 -9.84 125.52 -13.2 Q 122.32 -16.56 122.32 -21.84 L 122.32 -21.84 Q 122.32 -27.04 125.52 -30.44 Q 128.72 -33.84 133.68 -33.84 L 133.68 -33.84 Q 138.56 -33.84 141.64 -30.48 Q 144.72 -27.12 144.72 -21.84 L 144.72 -21.84 Q 144.72 -16.48 141.64 -13.16 Q 138.56 -9.84 133.68 -9.84 Z M 183.36 0.96 L 183.36 0.96 Q 190.08 0.96 195.12 -1.96 Q 200.16 -4.88 202.16 -9.68 L 202.16 -9.68 L 192.56 -14.24 Q 191.28 -12 189 -10.72 Q 186.72 -9.44 183.52 -9.44 L 183.52 -9.44 Q 179.12 -9.44 176.32 -11.92 Q 173.52 -14.4 173.04 -18.48 L 173.04 -18.48 L 203.6 -18.48 Q 203.92 -19.36 204.04 -20.6 Q 204.16 -21.84 204.16 -23.12 L 204.16 -23.12 Q 204.16 -29.2 201.64 -34.04 Q 199.12 -38.88 194.32 -41.76 Q 189.52 -44.64 182.56 -44.64 L 182.56 -44.64 Q 176.32 -44.64 171.36 -41.68 Q 166.4 -38.72 163.48 -33.6 Q 160.56 -28.48 160.56 -21.92 L 160.56 -21.92 Q 160.56 -15.6 163.36 -10.4 Q 166.16 -5.2 171.28 -2.12 Q 176.4 0.96 183.36 0.96 Z M 182.56 -35.04 L 182.56 -35.04 Q 186.24 -35.04 188.64 -32.88 Q 191.04 -30.72 191.44 -27.28 L 191.44 -27.28 L 173.28 -27.28 Q 174.16 -31.04 176.6 -33.04 Q 179.04 -35.04 182.56 -35.04 Z M 219.6 -48.8 L 219.6 0 L 232 0 L 232 -48.8 L 246.88 -48.8 L 246.88 -59.6 L 204.48 -59.6 L 204.48 -48.8 L 219.6 -48.8 Z M 244.16 -43.68 L 244.16 0 L 256.16 0 L 256.16 -23.52 Q 256.16 -28.4 258.88 -31.08 Q 261.6 -33.76 266 -33.76 L 266 -33.76 L 269.76 -33.76 L 269.76 -44.16 L 267.2 -44.16 Q 263.2 -44.16 260.12 -42.68 Q 257.04 -41.2 255.36 -37.12 L 255.36 -37.12 L 255.36 -43.68 L 244.16 -43.68 Z M 285.36 0.96 L 285.36 0.96 Q 293.52 0.96 298.48 -4.08 L 298.48 -4.08 L 298.48 0 L 309.68 0 L 309.68 -28.8 Q 309.68 -33.52 307.32 -37.08 Q 304.96 -40.64 300.72 -42.64 Q 296.48 -44.64 290.96 -44.64 L 290.96 -44.64 Q 284 -44.64 278.76 -41.44 Q 273.52 -38.24 271.6 -32.8 L 271.6 -32.8 L 281.2 -28.24 Q 282.32 -31.12 284.76 -32.88 Q 287.2 -34.64 290.4 -34.64 L 290.4 -34.64 Q 293.76 -34.64 295.72 -32.96 Q 297.68 -31.28 297.68 -28.8 L 297.68 -28.8 L 297.68 -27.6 L 285.6 -25.68 Q 277.76 -24.4 273.92 -20.8 Q 270.08 -17.2 270.08 -11.68 L 270.08 -11.68 Q 270.08 -5.76 274.2 -2.4 Q 278.32 0.96 285.36 0.96 Z M 282.48 -12.08 L 282.48 -12.08 Q 282.48 -14.24 283.84 -15.4 Q 285.2 -16.56 287.76 -17.04 L 287.76 -17.04 L 297.68 -18.8 L 297.68 -17.44 Q 297.68 -13.44 294.96 -10.64 Q 292.24 -7.84 287.76 -7.84 L 287.76 -7.84 Q 285.52 -7.84 284 -8.96 Q 282.48 -10.08 282.48 -12.08 Z M 336.72 0.96 L 336.72 0.96 Q 341.68 0.96 345.84 -0.76 Q 350 -2.48 352.96 -5.52 Q 355.92 -8.56 357.12 -12.4 L 357.12 -12.4 L 346.72 -16.96 Q 345.6 -13.68 342.96 -11.76 Q 340.32 -9.84 336.72 -9.84 L 336.72 -9.84 Q 332 -9.84 328.96 -13.2 Q 325.92 -16.56 325.92 -21.84 L 325.92 -21.84 Q 325.92 -27.12 328.96 -30.48 Q 332 -33.84 336.72 -33.84 L 336.72 -33.84 Q 340.24 -33.84 342.92 -31.92 Q 345.6 -30 346.72 -26.72 L 346.72 -26.72 L 357.12 -31.2 Q 355.84 -35.28 352.88 -38.28 Q 349.92 -41.28 345.76 -42.96 Q 341.6 -44.64 336.72 -44.64 L 336.72 -44.64 Q 330.16 -44.64 324.88 -41.68 Q 319.6 -38.72 316.56 -33.56 Q 313.52 -28.4 313.52 -21.92 L 313.52 -21.92 Q 313.52 -15.44 316.6 -10.24 Q 319.68 -5.04 324.92 -2.04 Q 330.16 0.96 336.72 0.96 Z M 360.96 -59.6 L 360.96 0 L 372.96 0 L 372.96 -13.36 L 377.76 -18.64 L 388.88 0 L 402.48 0 L 386.72 -26.08 L 402.56 -43.68 L 387.76 -43.68 L 372.96 -27.92 L 372.96 -59.6 L 360.96 -59.6 Z" stroke-linecap="round" />
</g>
</g>
</g>
<g transform="matrix(-0.375577158899163 0.006555723694140356 -0.006555723694140359 -0.3755771588991632 1511.262034000838 269.8272444179886)" id="shape-5f7038d3-184c-4539-9c2c-d8a49ae9b450"  >
<g style=""  paint-order="stroke"   >
		<g transform="matrix(1 0 0 1 0 0)" id="Arrow_28"  >
<path style="stroke: none; stroke-width: 0; stroke-dasharray: none; stroke-linecap: butt; stroke-dashoffset: 0; stroke-linejoin: miter; stroke-miterlimit: 4; fill: rgb(49,90,117); fill-rule: nonzero; opacity: 1;"  paint-order="stroke"  transform=" translate(-147.68, -147.68)" d="M 147.68 0 C 66.1 0 0 66.1 0 147.68 C 0 229.26000000000002 66.1 295.36 147.68 295.36 C 229.26000000000002 295.36 295.36 229.26000000000002 295.36 147.68 C 295.36 66.1 229.27 0 147.68 0 Z M 212.76 212.76 L 92.38999999999999 212.76 L 69.08999999999999 189.45999999999998 L 173.01999999999998 189.45999999999998 L 72.22999999999998 88.66999999999997 L 88.73999999999998 72.23999999999998 L 189.45999999999998 172.95999999999998 L 189.45999999999998 69.02999999999997 L 212.76 92.32999999999997 L 212.76 212.76999999999998 Z" stroke-linecap="round" />
</g>
</g>
</g>
<g transform="matrix(0.6246177102660793 0 0 0.6246177102660793 210.9127223584028 343.99071836774397)" id="maker-logo"  >
<g style=""  paint-order="stroke"   >
		<g transform="matrix(1.0000000000000002 0 0 1.0000000000000002 0 0)" id="background-logo"  >
<rect style="stroke: none; stroke-width: 0; stroke-dasharray: none; stroke-linecap: butt; stroke-dashoffset: 0; stroke-linejoin: miter; stroke-miterlimit: 4; fill: rgb(255,255,255); fill-rule: nonzero; opacity: 0; visibility: hidden;"  paint-order="stroke"  x="-325" y="-260" rx="0" ry="0" width="650" height="520" />
</g>
		<g transform="matrix(3.3482692387292885 0 0 3.3482692387292885 0 0)" id="logo-logo"  >
<g style=""  paint-order="stroke"   >
		<g transform="matrix(1.1139070858373052 0 0 1.1139070858373052 0 0)"  >
<g style=""  paint-order="stroke"   >
		<g transform="matrix(1 0 0 1 -66.00499999999992 28.95999999999998)"  >
<path style="stroke: none; stroke-width: 1; stroke-dasharray: none; stroke-linecap: butt; stroke-dashoffset: 0; stroke-linejoin: miter; stroke-miterlimit: 4; fill: rgb(190,194,192); fill-rule: nonzero; opacity: 1;"  paint-order="stroke"  transform=" translate(-34.010000000000005, -128.965)" d="M 20.84 156.3 L 49.17 130.15 L 49.17 101.63000000000001 L 18.85 101.63000000000001 L 18.85 156.01000000000002 L 18.85 156.01000000000002 C 19.520000000000003 156.01000000000002 20.18 156.10000000000002 20.84 156.29000000000002 Z" stroke-linecap="round" />
</g>
		<g transform="matrix(1 0 0 1 -62.049999999999926 53.01999999999998)"  >
<path style="stroke: none; stroke-width: 1; stroke-dasharray: none; stroke-linecap: butt; stroke-dashoffset: 0; stroke-linejoin: miter; stroke-miterlimit: 4; fill: rgb(49,90,117); fill-rule: nonzero; opacity: 1;"  paint-order="stroke"  transform=" translate(-37.965, -153.025)" d="M 26.89 164.06 L 49.17 164.06 L 49.17 141.99 L 26.76 162.68 C 26.85 163.14000000000001 26.89 163.6 26.89 164.06 Z" stroke-linecap="round" />
</g>
		<g transform="matrix(1 0 0 1 -33.01499999999993 -2.5800000000000267)"  >
<path style="stroke: none; stroke-width: 1; stroke-dasharray: none; stroke-linecap: butt; stroke-dashoffset: 0; stroke-linejoin: miter; stroke-miterlimit: 4; fill: rgb(190,194,192); fill-rule: nonzero; opacity: 1;"  paint-order="stroke"  transform=" translate(-67, -97.425)" d="M 53.3 124.83 C 53.3 120.4 56.91 116.78999999999999 61.339999999999996 116.78999999999999 C 63.38999999999999 116.78999999999999 65.32 117.58999999999999 66.78 119.00999999999999 L 82.16 115.22999999999999 L 82.16 67.16 L 51.839999999999996 67.16 L 51.839999999999996 127.69 L 53.43 126.22 C 53.339999999999996 125.76 53.3 125.3 53.3 124.84 Z" stroke-linecap="round" />
</g>
		<g transform="matrix(1 0 0 1 -33.01499999999993 44.12499999999997)"  >
<path style="stroke: none; stroke-width: 1; stroke-dasharray: none; stroke-linecap: butt; stroke-dashoffset: 0; stroke-linejoin: miter; stroke-miterlimit: 4; fill: rgb(49,90,117); fill-rule: nonzero; opacity: 1;"  paint-order="stroke"  transform=" translate(-67, -144.13)" d="M 61.34 132.87 C 60.67 132.87 60.010000000000005 132.78 59.35 132.59 L 51.84 139.53 L 51.84 164.07 L 82.16 164.07 L 82.16 124.19 L 68.89999999999999 127.45 C 67.82 130.62 64.82999999999998 132.88 61.33999999999999 132.88 Z" stroke-linecap="round" />
</g>
		<g transform="matrix(1 0 0 1 -0.014999999999929514 -26.985000000000028)"  >
<path style="stroke: none; stroke-width: 1; stroke-dasharray: none; stroke-linecap: butt; stroke-dashoffset: 0; stroke-linejoin: miter; stroke-miterlimit: 4; fill: rgb(190,194,192); fill-rule: nonzero; opacity: 1;"  paint-order="stroke"  transform=" translate(-100, -73.02)" d="M 96.12 108.12 L 103.16000000000001 78.52000000000001 C 101.75000000000001 77.05000000000001 100.94000000000001 75.13000000000001 100.94000000000001 73.08000000000001 C 100.94000000000001 68.65 104.55000000000001 65.04000000000002 108.98000000000002 65.04000000000002 C 109.78000000000002 65.04000000000002 110.58000000000001 65.18000000000002 111.36000000000001 65.45000000000002 L 115.16000000000001 62.33000000000002 L 115.16000000000001 31.48 L 84.84 31.48 L 84.84 114.56 L 91.35000000000001 112.96000000000001 C 92.13000000000001 110.71000000000001 93.87 108.94000000000001 96.12 108.12 Z" stroke-linecap="round" />
</g>
		<g transform="matrix(1 0 0 1 -0.02499999999992042 21.07499999999996)"  >
<path style="stroke: none; stroke-width: 1; stroke-dasharray: none; stroke-linecap: butt; stroke-dashoffset: 0; stroke-linejoin: miter; stroke-miterlimit: 4; fill: rgb(49,90,117); fill-rule: nonzero; opacity: 1;"  paint-order="stroke"  transform=" translate(-99.99000000000001, -121.07999999999998)" d="M 111.59 80.65 L 104.60000000000001 110.03 C 106.09 111.51 106.93 113.48 106.93 115.6 C 106.93 120.03 103.32000000000001 123.63999999999999 98.89000000000001 123.63999999999999 C 96.83000000000001 123.63999999999999 94.89000000000001 122.82999999999998 93.42000000000002 121.39999999999999 L 84.83000000000001 123.50999999999999 L 84.83000000000001 164.04999999999998 L 115.15 164.04999999999998 L 115.15 78.11 C 114.21000000000001 79.24 113.01 80.16 111.58000000000001 80.65 Z" stroke-linecap="round" />
</g>
		<g transform="matrix(1 0 0 1 32.98500000000007 15.59999999999998)"  >
<polygon style="stroke: none; stroke-width: 1; stroke-dasharray: none; stroke-linecap: butt; stroke-dashoffset: 0; stroke-linejoin: miter; stroke-miterlimit: 4; fill: rgb(49,90,117); fill-rule: nonzero; opacity: 1;"  paint-order="stroke"  points="-15.159999999999997,48.455 15.159999999999997,48.455 15.159999999999997,-48.455 -10.010000000000005,-48.455 -15.159999999999997,-44.215 -15.159999999999997,48.455 " />
</g>
		<g transform="matrix(1 0 0 1 63.810000000000116 32.83499999999995)"  >
<path style="stroke: none; stroke-width: 1; stroke-dasharray: none; stroke-linecap: butt; stroke-dashoffset: 0; stroke-linejoin: miter; stroke-miterlimit: 4; fill: rgb(49,90,117); fill-rule: nonzero; opacity: 1;"  paint-order="stroke"  transform=" translate(-163.82500000000005, -132.83999999999997)" d="M 176.8 157.37 L 176.8 139.53 C 174.53 138.09 173.11 135.61 173.11 132.85 C 173.11 132.65 173.11 132.45 173.14000000000001 132.23999999999998 L 170.38000000000002 130.14999999999998 C 169.51000000000002 130.48999999999998 168.62000000000003 130.65999999999997 167.71000000000004 130.65999999999997 C 163.28000000000003 130.65999999999997 159.67000000000004 127.04999999999997 159.67000000000004 122.61999999999998 C 159.67000000000004 120.29999999999998 160.70000000000005 118.11999999999998 162.42000000000004 116.61999999999998 L 160.06000000000003 101.62999999999998 L 150.84000000000003 101.62999999999998 L 150.84000000000003 164.04999999999998 L 173.12000000000003 164.04999999999998 C 173.12000000000003 161.29 174.54000000000002 158.80999999999997 176.81000000000003 157.35999999999999 Z" stroke-linecap="round" />
</g>
		<g transform="matrix(1 0 0 1 74.99500000000006 13.484999999999957)"  >
<path style="stroke: none; stroke-width: 1; stroke-dasharray: none; stroke-linecap: butt; stroke-dashoffset: 0; stroke-linejoin: miter; stroke-miterlimit: 4; fill: rgb(190,194,192); fill-rule: nonzero; opacity: 1;"  paint-order="stroke"  transform=" translate(-175.01, -113.48999999999998)" d="M 175.75 122.63 C 175.75 122.85 175.74 123.07 175.72 123.28999999999999 L 178.43 125.33999999999999 C 179.31 124.99 180.23000000000002 124.80999999999999 181.16 124.80999999999999 L 181.16 101.63999999999999 L 168.85999999999999 101.63999999999999 L 171.02999999999997 115.39999999999999 C 173.85999999999999 116.66 175.75999999999996 119.44 175.75999999999996 122.63 Z" stroke-linecap="round" />
</g>
		<g transform="matrix(1 0 0 1 0 0)"  >
<path style="stroke: none; stroke-width: 1; stroke-dasharray: none; stroke-linecap: butt; stroke-dashoffset: 0; stroke-linejoin: miter; stroke-miterlimit: 4; fill: rgb(33,208,59); fill-rule: nonzero; opacity: 1;"  paint-order="stroke"  transform=" translate(-100.01499999999993, -100.00500000000002)" d="M 182.64 159.18 L 182.64 137.73000000000002 C 184.76 137.08 186.32999999999998 135.18 186.32999999999998 132.85000000000002 C 186.32999999999998 129.99 183.99999999999997 127.67000000000002 181.14999999999998 127.67000000000002 C 180.01999999999998 127.67000000000002 179.01999999999998 128.11 178.17 128.73000000000002 L 172.51999999999998 124.46000000000002 C 172.73999999999998 123.89000000000003 172.89 123.28000000000002 172.89 122.63000000000002 C 172.89 120.04000000000002 170.95 117.99000000000002 168.48 117.60000000000002 L 156.33999999999997 40.56000000000002 C 158.05999999999997 39.72000000000001 159.27999999999997 37.98000000000002 159.27999999999997 35.94000000000002 C 159.27999999999997 33.08000000000002 156.94999999999996 30.76000000000002 154.09999999999997 30.76000000000002 C 151.24999999999997 30.76000000000002 148.91999999999996 33.08000000000002 148.91999999999996 35.94000000000002 C 148.91999999999996 36.65000000000002 149.06999999999996 37.33000000000002 149.32999999999996 37.94000000000002 L 111.76999999999995 68.83000000000001 C 110.94999999999996 68.29 110.03999999999995 67.91000000000001 108.98999999999995 67.91000000000001 C 106.12999999999995 67.91000000000001 103.80999999999995 70.23 103.80999999999995 73.09 C 103.80999999999995 74.97 104.85999999999994 76.54 106.35999999999994 77.45 L 98.49999999999994 110.51 C 95.93999999999994 110.72 93.92999999999995 112.74000000000001 93.77999999999994 115.31 L 65.71999999999994 122.21000000000001 C 64.80999999999995 120.7 63.22999999999994 119.64000000000001 61.349999999999945 119.64000000000001 C 58.489999999999945 119.64000000000001 56.169999999999945 121.96000000000001 56.169999999999945 124.82000000000002 C 56.169999999999945 125.63000000000002 56.39999999999994 126.38000000000002 56.72999999999995 127.06000000000002 L 21.42999999999995 159.65000000000003 C 20.65999999999995 159.20000000000005 19.80999999999995 158.87000000000003 18.85999999999995 158.87000000000003 C 15.99999999999995 158.87000000000003 13.67999999999995 161.19000000000003 13.67999999999995 164.05000000000004 C 13.67999999999995 166.91000000000005 16.00999999999995 169.23000000000005 18.85999999999995 169.23000000000005 C 21.70999999999995 169.23000000000005 24.03999999999995 166.91000000000005 24.03999999999995 164.05000000000004 C 24.03999999999995 163.24000000000004 23.80999999999995 162.49000000000004 23.47999999999995 161.81000000000003 L 58.78999999999995 129.22000000000003 C 59.55999999999995 129.67000000000002 60.39999999999995 130.00000000000003 61.35999999999995 130.00000000000003 C 64.11999999999995 130.00000000000003 66.33999999999995 127.81000000000003 66.48999999999995 125.09000000000003 L 94.52999999999994 118.19000000000003 C 95.42999999999995 119.71000000000002 97.01999999999994 120.78000000000003 98.91999999999994 120.78000000000003 C 101.77999999999994 120.78000000000003 104.09999999999994 118.46000000000004 104.09999999999994 115.60000000000002 C 104.09999999999994 113.67000000000002 102.98999999999994 112.05000000000003 101.41999999999993 111.16000000000003 L 109.24999999999993 78.22000000000003 C 111.98999999999992 78.08000000000003 114.17999999999992 75.86000000000003 114.17999999999992 73.09000000000003 C 114.17999999999992 72.37000000000003 114.02999999999992 71.68000000000004 113.75999999999992 71.06000000000003 L 151.29999999999993 40.180000000000035 C 151.92999999999992 40.60000000000004 152.61999999999992 40.87000000000003 153.39999999999992 40.98000000000003 L 165.52999999999992 117.97000000000003 C 163.76999999999992 118.80000000000003 162.5399999999999 120.56000000000003 162.5399999999999 122.63000000000002 C 162.5399999999999 125.49000000000002 164.86999999999992 127.81000000000003 167.7199999999999 127.81000000000003 C 168.83999999999992 127.81000000000003 169.80999999999992 127.38000000000002 170.6599999999999 126.78000000000003 L 176.3499999999999 131.08000000000004 C 176.1399999999999 131.64000000000004 175.9899999999999 132.23000000000005 175.9899999999999 132.86000000000004 C 175.9899999999999 135.19000000000005 177.5599999999999 137.09000000000003 179.6799999999999 137.74000000000004 L 179.6799999999999 159.19000000000003 C 177.5599999999999 159.84000000000003 175.9899999999999 161.74000000000004 175.9899999999999 164.07000000000002 C 175.9899999999999 166.93000000000004 178.3199999999999 169.25000000000003 181.1699999999999 169.25000000000003 C 184.0199999999999 169.25000000000003 186.3499999999999 166.93000000000004 186.3499999999999 164.07000000000002 C 186.3499999999999 161.74 184.77999999999992 159.84000000000003 182.6599999999999 159.19000000000003 Z M 18.849999999999994 166.26000000000002 C 17.639999999999993 166.26000000000002 16.649999999999995 165.27 16.649999999999995 164.06000000000003 C 16.649999999999995 162.85000000000005 17.639999999999993 161.86000000000004 18.849999999999994 161.86000000000004 C 20.059999999999995 161.86000000000004 21.049999999999994 162.85000000000005 21.049999999999994 164.06000000000003 C 21.049999999999994 165.27 20.059999999999995 166.26000000000002 18.849999999999994 166.26000000000002 Z M 61.339999999999996 127.03000000000003 C 60.129999999999995 127.03000000000003 59.13999999999999 126.04000000000003 59.13999999999999 124.83000000000003 C 59.13999999999999 123.62000000000002 60.129999999999995 122.63000000000002 61.339999999999996 122.63000000000002 C 62.55 122.63000000000002 63.54 123.62000000000002 63.54 124.83000000000003 C 63.54 126.04000000000003 62.55 127.03000000000003 61.339999999999996 127.03000000000003 Z M 98.88999999999999 117.81000000000003 C 97.67999999999999 117.81000000000003 96.68999999999998 116.82000000000004 96.68999999999998 115.61000000000003 C 96.68999999999998 114.40000000000002 97.67999999999998 113.41000000000003 98.88999999999999 113.41000000000003 C 100.1 113.41000000000003 101.08999999999999 114.40000000000002 101.08999999999999 115.61000000000003 C 101.08999999999999 116.82000000000004 100.1 117.81000000000003 98.88999999999999 117.81000000000003 Z M 108.97999999999999 75.29000000000002 C 107.77 75.29000000000002 106.77999999999999 74.30000000000003 106.77999999999999 73.09000000000002 C 106.77999999999999 71.88000000000001 107.76999999999998 70.89000000000001 108.97999999999999 70.89000000000001 C 110.19 70.89000000000001 111.17999999999999 71.88000000000001 111.17999999999999 73.09000000000002 C 111.17999999999999 74.30000000000003 110.19 75.29000000000002 108.97999999999999 75.29000000000002 Z M 151.89 35.94000000000002 C 151.89 34.73000000000002 152.88 33.740000000000016 154.08999999999997 33.740000000000016 C 155.29999999999995 33.740000000000016 156.28999999999996 34.73000000000002 156.28999999999996 35.94000000000002 C 156.28999999999996 37.15000000000002 155.29999999999995 38.14000000000002 154.08999999999997 38.14000000000002 C 152.88 38.14000000000002 151.89 37.15000000000002 151.89 35.94000000000002 Z M 167.7 124.83000000000001 C 166.48999999999998 124.83000000000001 165.5 123.84000000000002 165.5 122.63000000000001 C 165.5 121.42 166.49 120.43 167.7 120.43 C 168.90999999999997 120.43 169.89999999999998 121.42 169.89999999999998 122.63000000000001 C 169.89999999999998 123.84000000000002 168.90999999999997 124.83000000000001 167.7 124.83000000000001 Z M 181.14999999999998 166.26000000000002 C 179.93999999999997 166.26000000000002 178.95 165.27 178.95 164.06000000000003 C 178.95 162.85000000000005 179.94 161.86000000000004 181.14999999999998 161.86000000000004 C 182.35999999999996 161.86000000000004 183.34999999999997 162.85000000000005 183.34999999999997 164.06000000000003 C 183.34999999999997 165.27 182.35999999999996 166.26000000000002 181.14999999999998 166.26000000000002 Z M 181.14999999999998 130.64000000000001 C 182.35999999999999 130.64000000000001 183.34999999999997 131.63000000000002 183.34999999999997 132.84 C 183.34999999999997 134.04999999999998 182.35999999999996 135.04 181.14999999999998 135.04 C 179.94 135.04 178.95 134.04999999999998 178.95 132.84 C 178.95 131.63000000000002 179.94 130.64000000000001 181.14999999999998 130.64000000000001 Z" stroke-linecap="round" />
</g>
</g>
</g>
</g>
</g>
		<g transform="matrix(1 0 0 1 21.361158863164974 71.80999183055604)" style="filter: url(#SVGID_30346);" id="text-logo" data-is-lettermark="false"  >
<filter id="SVGID_30346" y="-20%" height="140%" x="-20%" width="140%" >
	<feGaussianBlur in="SourceAlpha" stdDeviation="0"></feGaussianBlur>
	<feOffset dx="0" dy="0" result="oBlur" ></feOffset>
	<feFlood flood-color="rgb(0,0,0)" flood-opacity="1"/>
	<feComposite in2="oBlur" operator="in" />
	<feMerge>
		<feMergeNode></feMergeNode>
		<feMergeNode in="SourceGraphic"></feMergeNode>
	</feMerge>
</filter>
		<text xml:space="preserve" font-family="Gemini,Noto Sans Arabic Fallback,Noto Sans Hebrew Fallback,Noto Sans Phags Pa Fallback,Noto Sans Thai Fallback,Noto Sans CJK SC Two Fallback,Noto Sans Display" font-size="42" font-style="normal" font-weight="normal" style="stroke: none; stroke-width: 0; stroke-dasharray: none; stroke-linecap: butt; stroke-dashoffset: 0; stroke-linejoin: miter; stroke-miterlimit: 4; fill: rgb(49,90,117); fill-rule: nonzero; opacity: 0; visibility: hidden; white-space: pre;" paint-order="stroke"  ><tspan x="-159.44249999999997" y="-14.332919999999994" >T</tspan><tspan x="-132.14249999999996" y="-14.332919999999994" >r</tspan><tspan x="-99.90749999999996" y="-14.332919999999994" >a</tspan><tspan x="-67.04249999999996" y="-14.332919999999994" >d</tspan><tspan x="-33.022499999999965" y="-14.332919999999994" >e</tspan><tspan x="-3.307499999999969" y="-14.332919999999994" >T</tspan><tspan x="23.992500000000035" y="-14.332919999999994" >r</tspan><tspan x="56.227500000000035" y="-14.332919999999994" >a</tspan><tspan x="89.09250000000003" y="-14.332919999999994" >c</tspan><tspan x="117.23250000000003" y="-14.332919999999994" >k</tspan><tspan x="151.25250000000003" y="-14.332919999999994" style="white-space: pre; "> </tspan><tspan x="-137.655" y="40.72068" >M</tspan><tspan x="-99.33000000000001" y="40.72068" >a</tspan><tspan x="-66.46500000000002" y="40.72068" >r</tspan><tspan x="-33.39000000000002" y="40.72068" >k</tspan><tspan x="0.6299999999999741" y="40.72068" >e</tspan><tspan x="30.34499999999997" y="40.72068" >t</tspan><tspan x="58.48499999999997" y="40.72068" >i</tspan><tspan x="80.53499999999997" y="40.72068" >n</tspan><tspan x="114.97499999999997" y="40.72068" >g</tspan></text>
</g>
</g>
</g>
</svg>